# xmcd
#
# Track frame offsets:
#	182
#	13040
#	23722
#	37847
#	51965
#	62765
#	73632
#	84737
#	95907
#	112245
#	127080
#	144290
#	155207
#	170237
#	179472
#	199812
#	216420
#	236455
#	254017
#	265100
#	281212
#	297532
#	310235
#
# Disc length: 4441 seconds
#
# Revision: 1
# Processed by: cddbd v1.4PL0 Copyright (c) Steve Scherf et al.
# Submitted via: audiograbber 1.81.02
#
DISCID=74115717
DTITLE=Various Artist - Bluestown Story Volume 2
DYEAR=1991
DGENRE=Blues
TTITLE0=Otis Rush - Three Times A Fool
TTITLE1=Otis Rush - Sit Down Baby
TTITLE2=W. Dixon - My Love Will Never Die
TTITLE3=W. Dixon - I Can't Quit You Baby
TTITLE4=James Cotton - Dealin With The Devil
TTITLE5=James Cotton - Decoration Day
TTITLE6=Albert Washington - You're Gonna Miss Me
TTITLE7=Albert Washington - Ramble
TTITLE8=Little Scotty - Slow That Disco Down - Part 1
TTITLE9=Little Scotty - Slow That Disco Down - Part 2
TTITLE10=Walter Allen - I'm Gonna Pack Up And Leave
TTITLE11=Walter Allen - Airplane Blues
TTITLE12=Walter Allen - Gin Fizz
TTITLE13=Walter Allen - Just Like A Woman
TTITLE14=Walter Allen and D. Malone - Stormy Monday Blues
TTITLE15=Walter Allen - One of These Days
TTITLE16=Walter Allen - Circle Round The Sum
TTITLE17=Walter Allen and C. King and G. Goffin - Hey Girl
TTITLE18=Walter Allen and Ray Charles - I've Got A Woman
TTITLE19=Walter Allen and E. Jones - The Things I Used To Do
TTITLE20=Walter Allen - Saturday Nite
TTITLE21=Walter Allen - All About My Girl
TTITLE22=Walter Allen and Glover - Drown In My Own Tears
EXTD=
EXTT0=
EXTT1=
EXTT2=
EXTT3=
EXTT4=
EXTT5=
EXTT6=
EXTT7=
EXTT8=
EXTT9=
EXTT10=
EXTT11=
EXTT12=
EXTT13=
EXTT14=
EXTT15=
EXTT16=
EXTT17=
EXTT18=
EXTT19=
EXTT20=
EXTT21=
EXTT22=
PLAYORDER=
